<svg xmlns="http://www.w3.org/2000/svg" xmlns:xlink="http://www.w3.org/1999/xlink" role="img" viewBox="0 0 500 500" xml:space="preserve"><!-- Generator: WPGraphicator version: 1.5.1 --><style type="text/css">.wpgraphicator-path-qcxb1u46o71o011rkbt3f path {animation-name: wpgraphicator-path-qcxb1u46o71o011rkbt3f;animation-delay: 0s;animation-duration: 3.31s;animation-iteration-count: infinite;animation-fill-mode: both;}@keyframes wpgraphicator-path-qcxb1u46o71o011rkbt3f{0% {}100% {}}#wpgraphicator-gradient-92ugelbfqcdjj026kebc stop:nth-child(1){animation-name: wpgraphicator-gradient-92ugelbfqcdjj026kebc-stop_0;animation-delay: 0s;animation-duration: 3.31s;animation-iteration-count: infinite;animation-fill-mode: both;}@keyframes wpgraphicator-gradient-92ugelbfqcdjj026kebc-stop_0{0%{animation-timing-function: linear;stop-color: rgb(209,209,209);stop-opacity: 0}0.6042296072507553%{animation-timing-function: linear;stop-color: rgb(201,201,201);stop-opacity: 0}51.66163141993958%{animation-timing-function: linear;stop-color: rgb(201,201,201);stop-opacity: 1}100%{animation-timing-function: linear;stop-color: rgb(201,201,201);stop-opacity: 0}}#wpgraphicator-gradient-92ugelbfqcdjj026kebc stop:nth-child(2){animation-name: wpgraphicator-gradient-92ugelbfqcdjj026kebc-stop_1;animation-delay: 0s;animation-duration: 3.31s;animation-iteration-count: infinite;animation-fill-mode: both;}@keyframes wpgraphicator-gradient-92ugelbfqcdjj026kebc-stop_1{0%{animation-timing-function: linear;stop-color: rgb(209,209,209);stop-opacity: 0}0.6042296072507553%{animation-timing-function: linear;stop-color: rgb(12,12,12);stop-opacity: 0}51.66163141993958%{animation-timing-function: linear;stop-color: rgb(201,201,201);stop-opacity: 1}100%{animation-timing-function: linear;stop-color: rgb(201,201,201);stop-opacity: 0}}</style><g class="wpgraphicator-path-qcxb1u46o71o011rkbt3f-top" style="transform:translateY(251.93px)"><g class="wpgraphicator-path-qcxb1u46o71o011rkbt3f-left" style="transform:translateX(253.7px)"><g class="wpgraphicator-path-qcxb1u46o71o011rkbt3f-angle" style="transform:rotate(0deg)"><g class="wpgraphicator-path-qcxb1u46o71o011rkbt3f-scaleY" style="transform:scaleY(0.55)"><g class="wpgraphicator-path-qcxb1u46o71o011rkbt3f-scaleX" style="transform:scaleX(0.55)"><g class="wpgraphicator-path-qcxb1u46o71o011rkbt3f-skewY" style="transform:skewY(0deg)"><g class="wpgraphicator-path-qcxb1u46o71o011rkbt3f-skewX" style="transform:skewX(0deg)"><g class="wpgraphicator-path-qcxb1u46o71o011rkbt3f"><linearGradient id="wpgraphicator-gradient-92ugelbfqcdjj026kebc" gradientUnits="objectBoundingBox" x1="0.6856839177751176" y1="0.9642429134404567" x2="0.3143160822248824" y2="0.035757086559543294"><stop offset="0%" stop-color="rgb(209,209,209)" stop-opacity="0"></stop><stop offset="99%" stop-color="rgb(209,209,209)" stop-opacity="0"></stop></linearGradient><path d="M 607.87 352.2 C 584.08 374.94 552.84 392.95 511.48 406.74 C 468.98 420.55 426.48 431.18 394.05 439.15 C 305.36 460.39 231.62 462.5 167.49 446.07 L 166.8 445.89 L 166.41 446.48 C 149.88 471.54 134.92 501.44 129.04 533.52 C 119.41 584.36 134.4 635.17 169.68 675.27 L 170.48 676.17 L 171.22 675.23 C 177.04 667.82 183.39 660.94 190.28 654.05 L 190.29 654.04 L 190.3 654.03 C 287.93 552.15 453.03 483.12 610.72 478.87 C 658.72 477.55 692.17 485.77 715.44 498.03 C 738.7 510.29 751.85 526.61 759.2 541.59 L 759.21 541.6 C 775.51 574.2 771.86 615.83 749.69 650.14 L 749.69 650.14 C 729.62 681.3 697.37 706.72 648.54 730.6 C 604.99 751.31 558.26 768.84 510.99 782.11 C 449.91 799.11 387.77 809.73 329.38 811.85 L 329.38 811.85 C 247.22 815.03 168.81 785.35 114.78 730.27 L 114.78 730.27 C 60.24 675.19 36.95 601.08 50.72 526.97 L 50.72 526.97 C 58.13 486.73 75.61 450.16 95.24 418.85 L 95.8 417.96 L 94.88 417.45 C 56.75 396.26 28.74 367.7 13.43 333.91 C 8.15 321.76 3.93 308.58 1.82 295.42 L 1.82 292.84 L 1.82 292.8 L 1.81 292.77 C -5.78 186.49 65.01 73.61 173.72 8.71 C 205.29 -10.13 243.64 10.01 252.6 45.82 C 127.31 92.93 75.84 200.65 81.17 281.74 L 81.17 281.77 L 81.18 281.81 C 82.26 289.38 84.96 296.92 87.62 303.83 L 87.63 303.86 L 87.64 303.89 C 98.93 328.62 119.87 345.77 141.78 357.52 L 142.46 357.89 L 142.98 357.33 C 150.96 348.82 158.91 340.33 167.39 332.38 L 167.4 332.38 C 214.69 287.21 341.54 182.17 496.4 177.39 L 496.41 177.39 C 560.6 175.27 604.31 191.19 627.95 224.29 C 654.19 261.55 645.88 315.24 607.87 352.2 Z M 230.26 719.19 L 229.49 720.17 L 230.62 720.71 C 261.07 735.13 295.79 742.61 331.04 741.54 L 331.04 741.54 C 422.65 738.34 525.94 711.72 614.32 668.59 L 614.32 668.59 C 647.88 652.08 669.33 636.04 681.71 617.74 C 690.91 604.2 692.59 586.27 686.56 574.2 C 681.03 563.15 668.55 556.94 654.05 553.53 C 639.51 550.12 622.67 549.45 608.01 549.72 L 608 549.72 C 474.85 553.45 331.03 613.08 249.48 697.83 C 242.55 704.76 236.14 711.7 230.26 719.19 Z M 221.3 381.46 L 219.89 382.87 L 221.87 383.16 C 266.7 389.56 317.34 385.28 379.09 370.91 L 379.1 370.91 C 409.94 363.46 450.39 353.35 489.24 340.58 C 516.97 331.51 537.33 320.28 551.3 306.85 L 551.31 306.84 L 551.31 306.84 C 556.74 301.41 561.1 294.21 563.01 286.84 C 564.92 279.47 564.4 271.83 559.93 265.67 C 554.38 257.9 543.68 253.45 531.59 251.05 C 519.46 248.63 505.68 248.24 493.68 248.77 C 407.84 251.44 307.24 299.88 224.23 379.08 C 223.76 379.16 223.37 379.37 223.05 379.63 C 222.67 379.92 222.33 380.31 222.05 380.64 L 222.01 380.68 C 221.78 380.94 221.56 381.2 221.3 381.46 Z" stroke="url(#wpgraphicator-gradient-92ugelbfqcdjj026kebc)" stroke-opacity="1" stroke-width="0.4" stroke-dasharray="none" stroke-dashoffset="0" stroke-linecap="butt" stroke-linejoin="miter" stroke-miterlimit="4" fill="none" fill-opacity="0" fill-rule="nonzero" opacity="1" transform=" translate(-385.28, -406.8)"></path></g></g></g></g></g></g></g></g></svg>