<svg width="111" height="22" viewBox="0 0 1110 213" fill="none" xmlns="http://www.w3.org/2000/svg">
<path d="M1.78983 161.37V149.972L11.8576 147.737C12.0068 142.373 12.0814 136.636 12.0814 130.527C12.0814 124.418 12.0814 119.054 12.0814 114.434V21.68L0 20.1154V10.0577L51.0102 0L54.8136 2.45855L53.9187 33.5257V61.6873C62.7187 53.0451 73.3085 48.724 85.6882 48.724C93.8916 48.724 101.349 50.8846 108.061 55.2057C114.773 59.3778 120.068 65.7104 123.946 74.2036C127.973 82.5477 129.987 93.127 129.987 105.941C129.987 118.159 127.675 128.664 123.051 137.455C118.427 146.247 112.387 153.026 104.929 157.794C97.6204 162.413 89.7899 164.723 81.4374 164.723C75.0238 164.723 69.4306 163.605 64.6577 161.37C59.8848 159.284 55.7085 156.23 52.1289 152.207L47.6543 164.723L1.78983 161.37ZM65.1051 70.851C63.1662 70.851 61.3018 71.149 59.5119 71.745C57.8712 72.341 56.2306 73.1605 54.5899 74.2036V140.137C57.5729 142.224 61.078 143.267 65.1051 143.267C71.0713 143.267 75.8441 140.212 79.4238 134.103C83.0035 127.994 84.7933 118.607 84.7933 105.941C84.7933 93.127 83.0035 84.1123 79.4238 78.8972C75.8441 73.5331 71.0713 70.851 65.1051 70.851Z" fill="url(#paint0_linear_312_5)"/>
<path d="M139.617 161.147V149.748L150.356 147.29C150.506 141.925 150.58 136.263 150.58 130.303C150.58 124.194 150.58 118.83 150.58 114.211V100.13C150.58 95.958 150.506 92.6055 150.356 90.0724C150.356 87.5393 150.282 85.2298 150.133 83.1438C150.133 80.9087 150.058 78.3012 149.909 75.3211L137.828 73.3096V64.1459L187.272 48.724L191.299 51.1826L193.089 77.1091C196.072 67.4239 200.323 60.2718 205.841 55.6527C211.509 51.0336 217.028 48.724 222.397 48.724C227.916 48.724 232.54 50.3631 236.268 53.6411C240.146 56.7702 242.458 61.7618 243.204 68.6159C242.906 74.5761 241.116 79.2697 237.834 82.6967C234.553 85.9748 230.675 87.6139 226.201 87.6139C219.34 87.6139 213.075 83.5163 207.407 75.3211L206.289 73.7566C203.604 76.7366 200.919 80.6107 198.234 85.3788C195.699 90.1469 193.984 95.064 193.089 100.13V114.211C193.089 118.532 193.089 123.598 193.089 129.409C193.089 135.22 193.163 140.733 193.312 145.949L210.763 149.748V161.147H139.617Z" fill="url(#paint1_linear_312_5)"/>
<path d="M302.686 164.723C289.859 164.723 279.045 162.19 270.245 157.124C261.445 151.909 254.808 144.831 250.334 135.891C245.859 126.951 243.622 116.967 243.622 105.941C243.622 94.766 246.157 84.9318 251.228 76.4386C256.3 67.7964 263.235 61.0168 272.035 56.0997C280.984 51.1826 291.201 48.724 302.686 48.724C314.171 48.724 324.313 51.1826 333.113 56.0997C342.062 60.8678 349.073 67.5729 354.144 76.2151C359.215 84.7083 361.751 94.617 361.751 105.941C361.751 117.265 359.439 127.398 354.815 136.338C350.34 145.129 343.703 152.058 334.903 157.124C326.252 162.19 315.513 164.723 302.686 164.723ZM302.686 152.43C307.608 152.43 311.188 148.854 313.425 141.702C315.812 134.55 317.005 122.853 317.005 106.612C317.005 90.3704 315.812 78.7482 313.425 71.745C311.188 64.5929 307.608 61.0168 302.686 61.0168C297.764 61.0168 294.11 64.5929 291.723 71.745C289.486 78.7482 288.367 90.3704 288.367 106.612C288.367 122.853 289.486 134.55 291.723 141.702C294.11 148.854 297.764 152.43 302.686 152.43Z" fill="url(#paint2_linear_312_5)"/>
<path d="M449.736 163.829L448.841 146.172C444.366 151.983 439.22 156.528 433.403 159.806C427.586 163.084 421.098 164.723 413.939 164.723C404.095 164.723 396.115 161.743 390 155.783C384.034 149.674 381.125 139.243 381.274 124.492L382.169 70.404L370.535 67.7219V57.6642L421.322 49.8416L425.349 52.3001L424.23 84.0378V125.61C424.23 131.421 425.125 135.444 426.915 137.679C428.854 139.765 431.241 140.808 434.074 140.808C436.312 140.808 438.624 140.063 441.01 138.573C443.546 137.083 446.007 135.22 448.393 132.985L449.288 70.1805L438.549 67.7219V58.7817L487.993 49.8416L492.02 52.3001L491.349 84.0378V147.737L501.641 149.972V161.37L449.736 163.829Z" fill="url(#paint3_linear_312_5)"/>
<path d="M562.708 108.847C567.183 108.847 570.39 106.686 572.329 102.365C574.268 98.0441 575.237 92.0094 575.237 84.2613C575.237 76.3641 574.193 70.3295 572.105 66.1574C570.017 61.9853 566.884 59.8993 562.708 59.8993C558.532 59.8993 555.474 61.9853 553.535 66.1574C551.596 70.3295 550.627 76.3641 550.627 84.2613C550.627 92.0094 551.522 98.0441 553.312 102.365C555.101 106.686 558.234 108.847 562.708 108.847ZM531.61 177.91C531.61 184.317 533.922 188.936 538.545 191.767C543.318 194.747 551.074 196.237 561.813 196.237C572.701 196.237 580.83 194.822 586.2 191.991C591.569 189.159 594.254 185.658 594.254 181.486C594.254 178.953 593.21 176.494 591.122 174.11C589.034 171.726 585.379 170.534 580.159 170.534H557.786C553.013 170.534 548.539 170.311 544.362 169.864C540.335 169.566 536.681 168.895 533.4 167.852C532.206 170.683 531.61 174.036 531.61 177.91ZM562.708 120.022C554.206 120.022 546.898 119.128 540.783 117.34C539.739 119.575 539.217 122.406 539.217 125.833C539.217 128.217 540.186 130.154 542.125 131.644C544.213 132.985 547.569 133.656 552.193 133.656H577.027C589.705 133.656 599.698 135.146 607.007 138.126C614.315 140.957 619.461 144.98 622.444 150.195C625.576 155.261 627.142 161.147 627.142 167.852C627.142 175.898 624.457 183.125 619.088 189.532C613.868 196.088 606.037 201.229 595.596 204.954C585.156 208.828 572.329 210.765 557.115 210.765C544.139 210.765 534.145 209.498 527.135 206.965C520.125 204.432 515.278 201.154 512.593 197.131C509.908 193.257 508.566 189.234 508.566 185.062C508.566 180.294 510.057 175.973 513.04 172.099C516.023 168.374 520.274 165.319 525.793 162.935C521.169 160.849 517.888 158.167 515.949 154.889C514.159 151.611 513.264 148.184 513.264 144.608C513.264 138.796 514.905 133.432 518.186 128.515C521.617 123.449 526.091 118.607 531.61 113.987C525.196 110.709 520.498 106.537 517.515 101.471C514.681 96.256 513.264 90.6684 513.264 84.7083C513.264 78.1522 514.905 72.192 518.186 66.8279C521.617 61.3148 526.912 56.9192 534.071 53.6411C541.379 50.3631 550.925 48.724 562.708 48.724C571.657 48.724 579.264 49.6925 585.529 51.6296C591.942 53.5666 597.088 56.1742 600.966 59.4523L626.023 48.0535L629.603 50.2886V68.8395H608.573C610.959 73.4586 612.152 78.7482 612.152 84.7083C612.152 90.9664 610.437 96.7775 607.007 102.142C603.725 107.506 598.43 111.827 591.122 115.105C583.962 118.383 574.491 120.022 562.708 120.022Z" fill="url(#paint4_linear_312_5)"/>
<path d="M636.703 161.147V149.748L646.995 147.29C647.144 141.925 647.218 136.263 647.218 130.303C647.218 124.194 647.218 118.83 647.218 114.211V22.3505L635.137 20.1154V10.0577L686.147 0L689.951 2.45855L689.056 33.5257V66.3809C695.022 59.3778 700.466 54.6842 705.388 52.3001C710.459 49.9161 716.127 48.724 722.391 48.724C732.385 48.724 740.588 51.9276 747.001 58.3347C753.564 64.5929 756.846 73.8311 756.846 86.0493V114.211C756.846 118.979 756.846 124.418 756.846 130.527C756.846 136.636 756.92 142.373 757.069 147.737L766.466 149.748V161.147H704.493V149.748L714.113 147.513C714.262 142.149 714.337 136.412 714.337 130.303C714.337 124.194 714.337 118.83 714.337 114.211V88.9549C714.337 82.8457 713.666 78.5992 712.323 76.2151C711.13 73.8311 708.669 72.639 704.94 72.639C702.703 72.639 700.242 73.3841 697.557 74.8741C695.022 76.2151 692.412 78.1522 689.727 80.6852V114.211C689.727 118.83 689.727 124.269 689.727 130.527C689.727 136.636 689.801 142.447 689.951 147.96L698.452 149.748V161.147H636.703Z" fill="url(#paint5_linear_312_5)"/>
<path d="M819.297 164.723C808.26 164.723 799.684 162.19 793.569 157.124C787.453 151.909 784.396 143.341 784.396 131.421C784.396 127.1 784.396 123.151 784.396 119.575C784.545 115.85 784.619 111.827 784.619 107.506V69.063H771.867V54.3116L787.08 52.3001L800.504 20.5624H827.128V52.3001H847.711V69.063H827.128V128.962C827.128 134.028 828.172 137.753 830.26 140.137C832.348 142.522 834.958 143.714 838.091 143.714C841.521 143.714 845.175 142.224 849.053 139.243L854.647 144.384C851.664 150.791 847.338 155.783 841.67 159.359C836.003 162.935 828.545 164.723 819.297 164.723Z" fill="url(#paint6_linear_312_5)"/>
<path d="M858.689 161.37V149.972L868.757 147.737C868.906 142.373 868.981 136.636 868.981 130.527C868.981 124.418 868.981 119.054 868.981 114.434V21.68L856.9 20.1154V10.0577L907.91 0L911.713 2.45855L910.818 33.5257V61.6873C919.618 53.0451 930.208 48.724 942.588 48.724C950.791 48.724 958.249 50.8846 964.961 55.2057C971.673 59.3778 976.968 65.7104 980.845 74.2036C984.873 82.5477 986.886 93.127 986.886 105.941C986.886 118.159 984.574 128.664 979.951 137.455C975.327 146.247 969.286 153.026 961.828 157.794C954.52 162.413 946.689 164.723 938.337 164.723C931.923 164.723 926.33 163.605 921.557 161.37C916.784 159.284 912.608 156.23 909.028 152.207L904.554 164.723L858.689 161.37ZM922.005 70.851C920.066 70.851 918.201 71.149 916.411 71.745C914.771 72.341 913.13 73.1605 911.489 74.2036V140.137C914.473 142.224 917.978 143.267 922.005 143.267C927.971 143.267 932.744 140.212 936.323 134.103C939.903 127.994 941.693 118.607 941.693 105.941C941.693 93.127 939.903 84.1123 936.323 78.8972C932.744 73.5331 927.971 70.851 922.005 70.851Z" fill="url(#paint7_linear_312_5)"/>
<path d="M1068.39 62.8048V52.3001H1110V62.8048L1096.58 65.0399L1054.29 174.334C1051.16 182.38 1047.88 189.234 1044.45 194.896C1041.02 200.707 1036.92 205.177 1032.14 208.306C1027.37 211.435 1021.33 213 1014.02 213C1007.91 213 1002.46 211.286 997.688 207.859C993.064 204.432 990.454 200.26 989.857 195.343C990.902 189.681 993.288 185.509 997.017 182.827C1000.75 180.294 1005 179.027 1009.77 179.027C1012.75 179.027 1016.11 179.623 1019.84 180.815C1023.72 182.156 1027.15 185.285 1030.13 190.203L1031.69 192.661C1034.23 189.681 1036.62 186.328 1038.85 182.603C1041.24 178.878 1043.18 174.93 1044.67 170.758L998.359 64.5929L988.515 62.8048V52.3001H1056.3V62.5813L1043.11 65.4869L1062.57 119.352L1081.36 65.4869L1068.39 62.8048Z" fill="url(#paint8_linear_312_5)"/>
<defs>
<linearGradient id="paint0_linear_312_5" x1="24" y1="163.5" x2="1005.48" y2="72.2408" gradientUnits="userSpaceOnUse">
<stop stop-color="#2B6EFF"/>
<stop offset="1" stop-color="#0051FF"/>
</linearGradient>
<linearGradient id="paint1_linear_312_5" x1="24" y1="163.5" x2="1005.48" y2="72.2408" gradientUnits="userSpaceOnUse">
<stop stop-color="#2B6EFF"/>
<stop offset="1" stop-color="#0051FF"/>
</linearGradient>
<linearGradient id="paint2_linear_312_5" x1="24" y1="163.5" x2="1005.48" y2="72.2408" gradientUnits="userSpaceOnUse">
<stop stop-color="#2B6EFF"/>
<stop offset="1" stop-color="#0051FF"/>
</linearGradient>
<linearGradient id="paint3_linear_312_5" x1="24" y1="163.5" x2="1005.48" y2="72.2408" gradientUnits="userSpaceOnUse">
<stop stop-color="#2B6EFF"/>
<stop offset="1" stop-color="#0051FF"/>
</linearGradient>
<linearGradient id="paint4_linear_312_5" x1="24" y1="163.5" x2="1005.48" y2="72.2408" gradientUnits="userSpaceOnUse">
<stop stop-color="#2B6EFF"/>
<stop offset="1" stop-color="#0051FF"/>
</linearGradient>
<linearGradient id="paint5_linear_312_5" x1="24" y1="163.5" x2="1005.48" y2="72.2408" gradientUnits="userSpaceOnUse">
<stop stop-color="#2B6EFF"/>
<stop offset="1" stop-color="#0051FF"/>
</linearGradient>
<linearGradient id="paint6_linear_312_5" x1="24" y1="163.5" x2="1005.48" y2="72.2408" gradientUnits="userSpaceOnUse">
<stop stop-color="#2B6EFF"/>
<stop offset="1" stop-color="#0051FF"/>
</linearGradient>
<linearGradient id="paint7_linear_312_5" x1="24" y1="163.5" x2="1005.48" y2="72.2408" gradientUnits="userSpaceOnUse">
<stop stop-color="#2B6EFF"/>
<stop offset="1" stop-color="#0051FF"/>
</linearGradient>
<linearGradient id="paint8_linear_312_5" x1="24" y1="163.5" x2="1005.48" y2="72.2408" gradientUnits="userSpaceOnUse">
<stop stop-color="#2B6EFF"/>
<stop offset="1" stop-color="#0051FF"/>
</linearGradient>
</defs>
</svg>
