<svg width="1315" height="239" viewBox="0 0 1315 239" fill="none" xmlns="http://www.w3.org/2000/svg">
<path fill-rule="evenodd" clip-rule="evenodd" d="M256.109 12.6531H267.582V89.1394H268.29C269.707 87.2981 271.406 85.4567 273.531 83.6154C275.656 81.7741 278.205 79.9327 281.18 78.233C284.154 76.5333 287.695 75.2586 291.661 74.1254C295.627 73.1339 300.16 72.5674 305.259 72.5674C312.907 72.5674 320.131 73.9838 326.647 76.9583C333.162 79.9327 338.686 83.8987 343.36 89.1394C348.034 94.2385 351.575 100.329 354.125 107.27C356.675 114.21 357.949 121.717 357.949 129.791C357.949 137.864 356.675 145.371 354.267 152.311C351.859 159.252 348.318 165.342 343.644 170.442C338.969 175.541 333.304 179.648 326.647 182.623C319.989 185.597 312.482 187.014 304.126 187.014C296.477 187.014 289.253 185.456 282.596 182.481C275.939 179.507 270.698 174.549 266.732 167.892H266.307V184.181H240.387V28.5169C240.387 19.7351 247.469 12.6531 256.109 12.6531ZM330.754 129.932C330.754 125.683 330.046 121.575 328.63 117.609C327.213 113.643 325.088 110.244 322.256 107.128C319.423 104.153 316.023 101.746 312.199 99.9042C308.233 98.0628 303.842 97.213 298.743 97.213C293.786 97.213 289.253 98.0628 285.287 99.9042C281.321 101.746 277.922 104.153 275.231 107.128C272.398 110.102 270.273 113.643 268.857 117.609C267.44 121.575 266.732 125.683 266.732 129.932C266.732 134.181 267.44 138.289 268.857 142.255C270.273 146.221 272.398 149.62 275.231 152.736C278.064 155.711 281.463 158.119 285.287 159.96C289.253 161.801 293.644 162.651 298.743 162.651C303.701 162.651 308.233 161.801 312.199 159.96C316.165 158.119 319.564 155.711 322.256 152.736C325.088 149.762 327.213 146.221 328.63 142.255C330.046 138.147 330.754 134.04 330.754 129.932Z" fill="white"/>
<path fill-rule="evenodd" clip-rule="evenodd" d="M1104.4 12.6531H1092.93C1084.29 12.6531 1077.2 19.7351 1077.2 28.5169V184.181H1103.12V167.892H1103.55C1107.52 174.549 1112.76 179.507 1119.41 182.481C1126.07 185.456 1133.29 187.014 1140.94 187.014C1149.3 187.014 1156.81 185.597 1163.46 182.623C1170.12 179.648 1175.79 175.541 1180.46 170.442C1185.14 165.342 1188.68 159.252 1191.08 152.311C1193.49 145.371 1194.77 137.864 1194.77 129.791C1194.77 121.717 1193.49 114.21 1190.94 107.27C1188.39 100.329 1184.85 94.2385 1180.18 89.1394C1175.5 83.8987 1169.98 79.9327 1163.46 76.9583C1156.95 73.9838 1149.72 72.5674 1142.08 72.5674C1136.98 72.5674 1132.44 73.1339 1128.48 74.1254C1124.51 75.2586 1120.97 76.5333 1118 78.233C1115.02 79.9327 1112.47 81.7741 1110.35 83.6154C1108.22 85.4567 1106.52 87.2981 1105.11 89.1394H1104.4V12.6531ZM1165.45 117.609C1166.86 121.575 1167.57 125.683 1167.57 129.932C1167.57 134.04 1166.86 138.147 1165.45 142.255C1164.03 146.221 1161.91 149.762 1159.07 152.736C1156.38 155.711 1152.98 158.119 1149.02 159.96C1145.05 161.801 1140.52 162.651 1135.56 162.651C1130.46 162.651 1126.07 161.801 1122.1 159.96C1118.28 158.119 1114.88 155.711 1112.05 152.736C1109.22 149.62 1107.09 146.221 1105.67 142.255C1104.26 138.289 1103.55 134.181 1103.55 129.932C1103.55 125.683 1104.26 121.575 1105.67 117.609C1107.09 113.643 1109.22 110.102 1112.05 107.128C1114.74 104.153 1118.14 101.746 1122.1 99.9042C1126.07 98.0628 1130.6 97.213 1135.56 97.213C1140.66 97.213 1145.05 98.0628 1149.02 99.9042C1152.84 101.746 1156.24 104.153 1159.07 107.128C1161.91 110.244 1164.03 113.643 1165.45 117.609Z" fill="white"/>
<path d="M891.795 90.556H891.37V12.7949H879.897C871.257 12.7949 864.175 19.877 864.175 28.5171V184.464H891.37V124.975C891.37 121.292 891.937 117.893 892.787 114.493C893.637 111.094 895.195 108.12 897.178 105.57C899.161 103.02 901.71 101.037 904.826 99.4794C907.943 97.9214 911.767 97.2132 916.299 97.2132C921.115 97.2132 924.798 98.3463 927.489 100.471C930.18 102.737 932.163 105.428 933.438 108.686C934.713 111.944 935.562 115.485 935.846 119.168C936.129 122.85 936.271 126.25 936.271 129.224V184.464H963.466V115.627C963.466 109.961 962.899 104.579 961.483 99.4794C960.067 94.3804 957.8 89.8478 954.684 85.8819C951.568 82.0576 947.46 78.7998 942.361 76.3919C937.262 73.984 931.03 72.7092 923.806 72.7092C915.308 72.7092 908.367 74.5506 902.985 78.2332C897.603 81.9159 893.92 86.0235 891.795 90.556Z" fill="white"/>
<path d="M393.785 75.4002H404.975V92.6804H405.399C408.374 86.3066 412.765 81.3491 418.289 77.9497C423.954 74.4087 430.328 72.709 437.552 72.709C439.252 72.709 440.81 72.8506 442.368 73.1339C443.926 73.4172 445.626 73.8421 447.184 74.267V100.612C444.917 100.046 442.651 99.4792 440.527 99.1959C438.26 98.771 436.136 98.6294 434.011 98.6294C427.637 98.6294 422.538 99.7625 418.714 102.17C414.889 104.578 411.915 107.269 409.79 110.244C407.807 113.218 406.391 116.335 405.683 119.309C404.975 122.283 404.691 124.55 404.691 126.108V184.464H377.496V91.4057C377.779 82.4822 385.003 75.4002 393.785 75.4002Z" fill="white"/>
<path fill-rule="evenodd" clip-rule="evenodd" d="M457.382 129.932C457.382 121.292 458.94 113.502 462.056 106.42C465.172 99.3376 469.421 93.3886 474.662 88.4312C479.903 83.4737 486.276 79.5078 493.5 76.8166C500.724 74.1254 508.514 72.709 516.588 72.709C524.803 72.709 532.452 74.1254 539.675 76.8166C546.899 79.5078 553.273 83.3321 558.514 88.4312C563.754 93.3886 568.004 99.4792 571.12 106.42C574.236 113.502 575.794 121.292 575.794 129.932C575.794 138.572 574.236 146.363 571.12 153.445C568.004 160.527 563.754 166.476 558.514 171.433C553.273 176.39 546.899 180.356 539.675 183.048C532.452 185.739 524.661 187.155 516.588 187.155C508.373 187.155 500.724 185.739 493.5 183.048C486.276 180.356 479.903 176.532 474.662 171.433C469.421 166.476 465.172 160.385 462.056 153.445C458.94 146.363 457.382 138.431 457.382 129.932ZM484.577 129.932C484.577 134.181 485.285 138.289 486.701 142.255C488.118 146.221 490.242 149.62 493.075 152.736C495.908 155.711 499.307 158.119 503.132 159.96C507.098 161.801 511.489 162.651 516.588 162.651C521.545 162.651 526.078 161.801 530.044 159.96C534.01 158.119 537.409 155.711 540.1 152.736C542.933 149.762 545.058 146.221 546.474 142.255C547.89 138.289 548.599 134.181 548.599 129.932C548.599 125.683 547.89 121.575 546.474 117.609C545.058 113.643 542.933 110.244 540.1 107.128C537.267 104.153 533.868 101.745 530.044 99.9041C526.078 98.0628 521.687 97.2129 516.588 97.2129C511.63 97.2129 507.098 98.0628 503.132 99.9041C499.166 101.745 495.766 104.153 493.075 107.128C490.242 110.102 488.118 113.643 486.701 117.609C485.285 121.575 484.577 125.683 484.577 129.932Z" fill="white"/>
<path d="M670.693 184.323H696.614V85.8819C696.614 80.0746 691.94 75.4004 686.132 75.4004H679.9C674.093 75.4004 669.419 80.0746 669.419 85.8819V134.748C669.419 138.431 668.852 141.972 668.002 145.23C667.152 148.629 665.594 151.603 663.611 154.153C661.628 156.703 659.079 158.686 655.963 160.244C652.847 161.802 649.022 162.51 644.49 162.51C639.674 162.51 635.991 161.518 633.3 159.252C630.609 156.986 628.626 154.295 627.351 151.037C626.076 147.779 625.227 144.238 624.943 140.555C624.66 136.873 624.518 133.473 624.518 130.499V75.4004H613.045C604.405 75.4004 597.323 82.4825 597.323 91.1226V144.096C597.323 149.762 597.89 155.144 599.306 160.244C600.723 165.343 602.989 170.017 606.105 173.983C609.221 177.949 613.329 181.065 618.428 183.473C623.527 185.881 629.759 187.014 636.983 187.014C646.048 187.014 653.272 185.031 658.512 181.065C663.753 177.099 667.719 172.283 670.269 166.901H670.693V184.323Z" fill="white"/>
<path fill-rule="evenodd" clip-rule="evenodd" d="M836.414 75.6837V174.549C836.414 184.323 835.139 193.246 832.731 201.178C830.323 209.11 826.499 215.909 821.542 221.433C816.443 226.957 810.069 231.206 802.42 234.322C794.771 237.296 785.565 238.855 774.942 238.855C764.743 238.855 755.253 237.58 746.047 235.03C736.982 232.481 728.625 227.807 720.835 221.008L737.123 198.77C742.506 203.727 748.313 207.693 754.12 210.385C760.069 213.076 766.868 214.492 774.517 214.492C781.032 214.492 786.556 213.642 790.947 211.801C795.48 209.96 799.021 207.552 801.57 204.294C804.261 201.178 806.103 197.354 807.236 192.821C808.369 188.289 808.936 183.331 808.936 177.949V170.017H808.511C804.545 175.258 799.304 179.224 792.788 181.915C786.273 184.606 779.616 185.881 772.817 185.881C764.602 185.881 757.236 184.464 750.579 181.49C743.922 178.515 738.257 174.549 733.441 169.592C728.625 164.634 724.942 158.686 722.393 151.887C719.843 145.088 718.568 137.864 718.568 130.074C718.568 122 719.843 114.493 722.251 107.553C724.659 100.613 728.2 94.522 732.874 89.4229C737.548 84.3238 743.214 80.2162 749.729 77.2417C756.245 74.2672 763.894 72.8508 772.25 72.8508C779.899 72.8508 787.123 74.4089 793.78 77.3834C800.437 80.3578 805.678 85.3153 809.644 91.9724H810.069V78.7998C810.069 77.1001 811.485 75.6837 813.185 75.6837H836.414ZM778.199 97.2132C773.384 97.2132 768.993 98.063 765.027 99.621C761.061 101.179 757.661 103.445 754.97 106.137C752.137 108.969 750.013 112.369 748.455 116.335C746.897 120.301 746.047 124.833 746.047 129.649C746.047 134.04 746.897 138.148 748.455 141.972C750.013 145.796 752.279 149.054 755.112 152.028C757.945 154.861 761.344 157.127 765.31 158.827C769.276 160.527 773.525 161.377 778.058 161.377C783.015 161.377 787.548 160.527 791.514 158.827C795.48 157.127 798.879 154.861 801.712 152.17C804.545 149.337 806.669 145.938 808.227 142.113C809.785 138.147 810.494 133.898 810.494 129.366C810.494 119.876 807.661 112.085 801.853 106.278C796.046 100.188 788.256 97.2132 778.199 97.2132Z" fill="white"/>
<path d="M977.772 98.4878V75.4002H1000.29V43.8142H1027.49V75.4002H1057.52V98.4878H1027.49V146.221C1027.49 151.603 1028.48 155.994 1030.6 159.11C1032.59 162.226 1036.69 163.926 1042.79 163.926C1045.19 163.926 1047.88 163.643 1050.72 163.076C1053.55 162.51 1055.82 161.66 1057.52 160.527V183.473C1054.68 184.889 1051.14 185.739 1046.89 186.305C1042.79 186.872 1039.1 187.155 1035.84 187.155C1028.62 187.155 1022.67 186.305 1018 184.747C1013.32 183.189 1009.78 180.781 1007.09 177.524C1004.4 174.266 1002.56 170.158 1001.71 165.342C1000.72 160.527 1000.29 154.861 1000.29 148.487V98.4878H977.772Z" fill="white"/>
<path d="M1228.19 75.4004H1198.17L1244.62 185.739L1239.38 198.628C1239.24 198.946 1239.1 199.261 1238.96 199.571C1237.86 202.026 1236.86 204.233 1235.98 205.994C1234.99 207.977 1233.58 209.676 1232.02 210.951C1230.46 212.226 1228.48 213.217 1226.21 213.784C1223.94 214.351 1221.11 214.634 1217.85 214.634C1215.45 214.634 1213.18 214.351 1210.77 213.784L1204.11 212.226L1200.72 236.305C1207.51 238.146 1214.45 238.996 1221.54 238.996C1227.63 238.996 1232.87 238.288 1237.12 237.013C1241.37 235.738 1245.19 233.755 1248.31 231.064C1251.56 228.373 1254.26 225.115 1256.66 221.291C1259.07 217.467 1261.2 212.934 1263.18 207.835L1314.74 75.542H1297.46C1290.8 75.542 1284.85 79.6496 1282.58 85.8819L1259.07 151.037H1258.65L1228.19 75.4004Z" fill="white"/>
<path fill-rule="evenodd" clip-rule="evenodd" d="M81.534 205.797C95.9233 205.274 111.228 202.657 126.272 198.471C137.914 195.201 149.425 190.884 160.152 185.783C172.187 179.896 180.166 173.617 185.137 165.899C190.631 157.397 191.547 147.062 187.492 138.952C183.829 131.496 174.41 122.731 150.733 123.386C111.882 124.432 71.1999 141.438 47.1306 166.553C45.43 168.254 43.8603 169.954 42.4213 171.786C33.7878 161.975 30.125 149.548 32.4797 137.121C33.9186 129.272 37.5813 121.947 41.6365 115.798C57.4647 119.854 75.6475 119.33 97.4931 114.098C105.473 112.136 115.938 109.519 126.402 106.118C136.606 102.717 144.324 98.2697 150.21 92.6448C159.629 83.488 161.722 70.1452 155.181 60.8575C149.295 52.6164 138.437 48.692 122.609 49.2153C84.4119 50.3926 53.1479 76.2933 41.5057 87.4123C39.4127 89.3745 37.4505 91.4675 35.4883 93.5605C30.125 90.6826 25.0234 86.4966 22.2763 80.4793C21.6223 78.7787 20.9682 76.9474 20.7066 75.116C19.3985 55.2326 32.0548 28.7567 62.9264 17.2453V17.2453C60.7912 8.17715 51.103 2.97623 43.104 7.7518C16.3045 23.7515 -1.18362 51.5986 0.692411 77.863V78.5171C1.21566 81.7874 2.26215 85.0577 3.57027 88.0664C7.36381 96.4383 14.2968 103.502 23.7153 108.735C18.8752 116.453 14.5585 125.479 12.7271 135.42C9.32598 153.734 15.0817 172.047 28.5553 185.652C41.8981 199.256 61.2582 206.582 81.534 205.797ZM81.9265 188.006C73.2929 188.268 64.7901 186.437 57.3339 182.905C58.7728 181.073 60.3425 179.373 62.0431 177.672C82.0573 156.873 117.376 142.222 150.079 141.307C157.274 141.176 166.562 141.961 169.178 147.193C170.617 150.071 170.224 154.388 168.001 157.658C164.992 162.106 159.759 166.03 151.518 170.085C129.804 180.681 104.426 187.222 81.9265 188.006ZM93.6995 96.8307C78.5254 100.363 66.0983 101.409 55.1101 99.8394C55.1802 99.7693 55.2409 99.6992 55.2972 99.6342C55.4512 99.4564 55.5726 99.3162 55.7641 99.3162C76.1708 79.8252 100.894 67.9214 121.955 67.2673C127.841 67.0057 135.428 67.6597 138.045 71.3225C140.138 74.2003 138.568 78.5171 135.952 81.1333C132.551 84.4036 127.58 87.1507 120.778 89.3745C111.228 92.514 101.287 94.9994 93.6995 96.8307Z" fill="#0052FF"/>
</svg>
