<svg width="771" height="814" viewBox="0 0 771 814" fill="none" xmlns="http://www.w3.org/2000/svg">
<g filter="url(#filter0_i_366_6)">
<path d="M607.87 352.2C584.075 374.938 552.844 392.949 511.479 406.738C468.984 420.548 426.482 431.175 394.049 439.15C305.358 460.393 231.623 462.496 167.49 446.066L166.8 445.889L166.407 446.484C149.882 471.538 134.92 501.44 129.039 533.521C119.408 584.356 134.4 635.175 169.681 675.268L170.476 676.171L171.218 675.225C177.035 667.822 183.386 660.941 190.281 654.046L190.288 654.039L190.296 654.031C287.928 552.154 453.03 483.121 610.717 478.873C658.715 477.547 692.165 485.771 715.437 498.033C738.698 510.289 751.846 526.61 759.204 541.588L759.207 541.595C775.511 574.201 771.859 615.83 749.691 650.138L749.69 650.139C729.622 681.297 697.367 706.716 648.539 730.6C604.992 751.311 558.256 768.837 510.99 782.114C449.905 799.111 387.774 809.73 329.378 811.853L329.376 811.853C247.219 815.034 168.806 785.35 114.784 730.269L114.781 730.265C60.2382 675.193 36.9535 601.082 50.7164 526.974L50.7167 526.972C58.1302 486.728 75.6116 450.159 95.2443 418.853L95.8046 417.96L94.8828 417.448C56.7526 396.264 28.7431 367.701 13.4273 333.905C8.14846 321.763 3.93044 308.582 1.81565 295.416V292.837V292.802L1.81311 292.766C-5.77835 186.486 65.0146 73.6121 173.719 8.71352C205.286 -10.1323 243.641 10.0117 252.598 45.8178C127.308 92.926 75.8353 200.651 81.1699 281.737L81.1724 281.775L81.1778 281.813C82.2587 289.379 84.9556 296.916 87.615 303.831L87.6259 303.859L87.6386 303.887C98.928 328.616 119.869 345.768 141.778 357.524L142.455 357.887L142.981 357.327C150.96 348.816 158.914 340.332 167.394 332.382L167.401 332.376C214.69 287.212 341.535 182.165 496.403 177.392L496.405 177.392C560.596 175.27 604.307 191.194 627.951 224.291C654.192 261.553 645.879 315.244 607.87 352.2ZM230.261 719.185L229.487 720.17L230.619 720.707C261.069 735.13 295.788 742.608 331.04 741.539L331.044 741.539C422.649 738.344 525.938 711.719 614.319 668.594L614.322 668.592C647.876 652.082 669.33 636.035 681.705 617.743C690.911 604.202 692.593 586.271 686.556 574.198C681.033 563.151 668.554 556.941 654.055 553.533C639.511 550.115 622.665 549.452 608.014 549.718L608.004 549.719C474.853 553.447 331.034 613.082 249.475 697.834C242.548 704.762 236.14 711.702 230.261 719.185ZM221.301 381.458L219.887 382.872L221.867 383.155C266.697 389.56 317.343 385.282 379.09 370.91L379.098 370.908C409.941 363.463 450.385 353.353 489.241 340.578C516.973 331.512 537.33 320.284 551.3 306.851L551.307 306.844L551.314 306.837C556.744 301.408 561.096 294.209 563.007 286.841C564.917 279.471 564.404 271.828 559.926 265.668C554.377 257.901 543.68 253.452 531.594 251.048C519.458 248.634 505.682 248.236 493.676 248.769C407.84 251.438 307.242 299.881 224.226 379.077C223.761 379.161 223.373 379.37 223.046 379.625C222.669 379.919 222.333 380.306 222.046 380.638L222.013 380.676C221.782 380.943 221.557 381.202 221.301 381.458Z" stroke="white" stroke-width="0.3" opacity="0.3"/>
</g>
<defs>
<filter id="filter0_i_366_6" x="0.256836" y="0.501465" width="770.041" height="831.769" filterUnits="userSpaceOnUse" color-interpolation-filters="sRGB">
<feFlood flood-opacity="0" result="BackgroundImageFix"/>
<feBlend mode="normal" in="SourceGraphic" in2="BackgroundImageFix" result="shape"/>
<feColorMatrix in="SourceAlpha" type="matrix" values="0 0 0 0 0 0 0 0 0 0 0 0 0 0 0 0 0 0 127 0" result="hardAlpha"/>
<feOffset dy="28.6722"/>
<feGaussianBlur stdDeviation="9.59268"/>
<feComposite in2="hardAlpha" operator="arithmetic" k2="-1" k3="1"/>
<feColorMatrix type="matrix" values="0 0 0 0 0 0 0 0 0 0 0 0 0 0 0 0 0 0 0.25 0"/>
<feBlend mode="normal" in2="shape" result="effect1_innerShadow_366_6"/>
</filter>
</defs>
</svg>
