<svg width="1058" height="201" viewBox="0 0 1058 201" fill="none" xmlns="http://www.w3.org/2000/svg">
<path fill-rule="evenodd" clip-rule="evenodd" d="M238.67 156.93C232.03 156.991 225.463 155.548 219.46 152.71C213.638 149.951 208.688 145.644 205.15 140.26L204.76 154.57H183V17.3301H205.15V71.8301C208.656 66.6404 213.421 62.4255 219 59.5801C225.14 56.4202 231.965 54.823 238.87 54.9302C248.29 54.9302 256.427 57.1968 263.28 61.73C270.161 66.2507 275.69 72.5503 279.28 79.96C283.158 87.9929 285.107 96.8208 284.97 105.74C285.08 114.656 283.133 123.479 279.28 131.52C275.719 139.029 270.189 145.432 263.28 150.05C256.427 154.637 248.223 156.93 238.67 156.93ZM233.77 137.52C239.031 137.623 244.209 136.191 248.67 133.4C253.04 130.593 256.539 126.62 258.77 121.93C261.212 116.889 262.451 111.351 262.39 105.75C262.536 99.9641 261.223 94.2344 258.57 89.0901C256.207 84.5852 252.646 80.8203 248.28 78.21C243.881 75.6404 238.864 74.3196 233.77 74.3901C228.555 74.2739 223.417 75.6626 218.97 78.3901C214.673 81.1226 211.212 84.9878 208.97 89.5601C206.481 94.6519 205.24 100.263 205.35 105.93C205.248 111.603 206.499 117.218 209 122.31C211.253 126.945 214.786 130.838 219.18 133.529C223.575 136.221 228.648 137.599 233.8 137.5L233.77 137.52Z" fill="url(#paint0_linear_348_42)"/>
<path d="M299.05 154.55V57.3198H320.61L321 73.2C324.116 67.6072 328.692 62.9653 334.24 59.7698C340.132 56.4822 346.794 54.8252 353.54 54.97V78.2998H347.47C338.577 78.2998 331.977 80.52 327.67 84.96C323.364 89.3999 321.207 96.3267 321.2 105.74V154.55H299.05Z" fill="url(#paint1_linear_348_42)"/>
<path fill-rule="evenodd" clip-rule="evenodd" d="M381.83 150.65C389.711 154.908 398.553 157.071 407.51 156.93C417.57 156.93 426.49 154.733 434.27 150.34C441.906 146.097 448.216 139.822 452.5 132.21C456.961 124.183 459.227 115.122 459.07 105.94C459.063 95.3533 456.807 86.27 452.3 78.6899C447.959 71.283 441.648 65.2253 434.07 61.1899C426.103 57.1277 417.288 55.0098 408.345 55.0098C399.402 55.0098 390.587 57.1277 382.62 61.1899C374.979 65.228 368.601 71.2979 364.19 78.73C359.617 86.3032 357.33 95.3867 357.33 105.98C357.33 116.307 359.52 125.29 363.9 132.93C368.1 140.398 374.312 146.538 381.83 150.65ZM422.51 133.5C418.11 136.356 412.955 137.826 407.71 137.72L407.69 137.69C402.728 137.724 397.854 136.375 393.615 133.794C389.376 131.214 385.939 127.504 383.69 123.08C381.02 117.767 379.708 111.875 379.87 105.93C379.769 100.315 380.906 94.7461 383.2 89.6199C385.281 85.0078 388.649 81.0945 392.9 78.3501C397.386 75.5315 402.604 74.0984 407.9 74.23C413.029 74.1377 418.083 75.4592 422.51 78.05C426.818 80.6702 430.312 84.4373 432.6 88.9299C435.19 94.0867 436.471 99.8013 436.33 105.57C436.432 111.277 435.152 116.924 432.6 122.03C430.294 126.667 426.816 130.622 422.51 133.5Z" fill="url(#paint2_linear_348_42)"/>
<path d="M510.9 156.93C502.793 156.93 495.833 155.23 490.02 151.83C484.185 148.414 479.508 143.329 476.59 137.23C473.463 130.89 471.896 123.407 471.89 114.78V57.3201H494V111.62C494 119.733 495.927 126.17 499.78 130.93C503.633 135.69 509.373 138.077 517 138.09C524.707 138.09 530.707 135.607 535 130.64C539.293 125.673 541.45 118.81 541.47 110.05V57.3201H563.62V154.55H542.07L541.67 141.22C538.414 146.188 533.878 150.185 528.54 152.79C523.066 155.536 517.023 156.954 510.9 156.93Z" fill="url(#paint3_linear_348_42)"/>
<path fill-rule="evenodd" clip-rule="evenodd" d="M600.5 197.09C608.108 199.121 615.956 200.11 623.83 200.03C631.495 200.065 639.101 198.692 646.27 195.98C652.66 193.697 658.34 189.776 662.74 184.61C666.887 179.543 669.077 173.156 668.91 166.61C668.91 159.55 667.41 153.767 664.41 149.26C661.31 144.684 656.802 141.243 651.57 139.46C645.162 137.311 638.427 136.295 631.67 136.46H614.42C604.353 136.46 599.32 133.46 599.32 127.46C599.271 125.941 599.674 124.442 600.476 123.152C601.279 121.861 602.446 120.838 603.83 120.21C606.522 121.5 609.35 122.486 612.26 123.15C615.349 123.837 618.506 124.172 621.67 124.15C628.57 124.272 635.407 122.829 641.67 119.93C647.375 117.285 652.253 113.137 655.78 107.93C659.365 102.525 661.21 96.1538 661.07 89.6699C661.082 87.0195 660.722 84.3804 660 81.8301C659.278 79.354 658.393 76.9287 657.35 74.5701H671.46V57.28H637.16C632.153 55.6858 626.925 54.8926 621.67 54.9299C614.602 54.7896 607.592 56.2278 601.15 59.1401C595.464 61.7356 590.635 65.8982 587.23 71.1401C583.896 76.3066 582.23 82.4834 582.23 89.6699C582.201 93.8262 582.965 97.9497 584.48 101.82C585.982 105.614 588.214 109.076 591.05 112.01C583.21 116.723 579.29 123.26 579.29 131.62C579.224 135.176 580.175 138.676 582.03 141.71C583.952 144.739 586.576 147.26 589.68 149.06C585.91 151.032 582.705 153.934 580.37 157.49C578.124 161.209 576.999 165.497 577.13 169.84C577.103 177.167 579.227 183.05 583.5 187.49C587.773 191.93 593.44 195.13 600.5 197.09ZM640.98 178.86C636.213 181.213 630.43 182.39 623.63 182.39C619.355 182.417 615.091 181.958 610.92 181.02C607.474 180.327 604.247 178.815 601.51 176.61C600.334 175.576 599.406 174.29 598.795 172.848C598.184 171.406 597.905 169.844 597.98 168.28C598.007 163.967 599.543 160.667 602.59 158.38C605.637 156.093 609.97 154.95 615.59 154.95H630.49C642.25 154.95 648.13 159.393 648.13 168.28C648.13 172.98 645.747 176.507 640.98 178.86ZM635.1 101.82C631.507 104.96 626.9 106.53 621.28 106.53C615.533 106.53 610.993 104.96 607.66 101.82C606.01 100.267 604.711 98.3796 603.849 96.2844C602.987 94.1895 602.581 91.9343 602.66 89.6699C602.592 87.3748 603.02 85.092 603.916 82.9778C604.812 80.8633 606.154 78.9675 607.85 77.4199C611.31 74.2134 615.787 72.6101 621.28 72.6101C626.893 72.6167 631.5 74.22 635.1 77.4199C636.846 78.9377 638.236 80.8232 639.167 82.9412C640.099 85.0591 640.551 87.3569 640.49 89.6699C640.557 91.9692 640.107 94.2544 639.174 96.3569C638.241 98.4595 636.849 100.326 635.1 101.82Z" fill="url(#paint4_linear_348_42)"/>
<path d="M682.07 154.55V17.3301H704.22V70.46C707.519 65.3538 712.259 61.3411 717.84 58.9302C723.466 56.3318 729.583 54.968 735.78 54.9302C747.02 54.9302 756.167 58.5234 763.22 65.71C770.273 72.8967 773.803 83.4834 773.81 97.47V154.47H751.86V100.17C751.86 91.9434 749.93 85.4768 746.07 80.77C742.21 76.0635 736.543 73.71 729.07 73.71C721.35 73.71 715.27 76.2268 710.83 81.26C706.39 86.2935 704.17 93.1201 704.17 101.74V154.47L682.07 154.55Z" fill="url(#paint5_linear_348_42)"/>
<path d="M802.68 147.3C807.913 152.133 815.493 154.55 825.42 154.55L840.91 154.53V135.91H829.74C825.55 135.91 822.42 135.13 820.33 133.56C818.237 131.987 817.19 128.917 817.19 124.35V75.9299H840.91V57.3201H817.19V33.8H794.84V57.3201H780.92V75.9299H794.84V124.17C794.833 134.757 797.447 142.467 802.68 147.3Z" fill="url(#paint6_linear_348_42)"/>
<path fill-rule="evenodd" clip-rule="evenodd" d="M908.17 156.93C901.542 156.979 894.989 155.529 889 152.69C883.174 149.934 878.219 145.626 874.68 140.24L874.29 154.55H852.49V17.3301H874.64V71.8301C878.137 66.6443 882.892 62.4297 888.46 59.5801C894.609 56.4153 901.445 54.8181 908.36 54.9302C917.767 54.9302 925.903 57.1833 932.77 61.6902C939.651 66.2109 945.18 72.5105 948.77 79.9202C952.648 87.9531 954.597 96.7808 954.46 105.7C954.57 114.616 952.623 123.438 948.77 131.48C945.208 138.989 939.679 145.392 932.77 150.01C925.91 154.624 917.71 156.93 908.17 156.93ZM903.27 137.52C908.528 137.621 913.702 136.19 918.16 133.4C922.533 130.596 926.032 126.623 928.26 121.93C930.71 116.892 931.953 111.352 931.89 105.75C932.033 99.9631 930.716 94.2334 928.06 89.0901C925.697 84.5852 922.136 80.8203 917.77 78.21C913.374 75.6421 908.361 74.3215 903.27 74.3901C898.052 74.2725 892.91 75.6614 888.46 78.3901C884.162 81.1218 880.702 84.9871 878.46 89.5601C875.971 94.6521 874.73 100.263 874.84 105.93C874.733 111.598 875.978 117.209 878.47 122.3C880.723 126.935 884.255 130.828 888.65 133.519C893.044 136.211 898.118 137.589 903.27 137.49V137.52Z" fill="url(#paint7_linear_348_42)"/>
<path d="M994.1 150.24L972.74 197.68H996.06L1057.81 57.3201H1034.49L1006.06 126.72L978.62 57.3201H953.92L994.1 150.24Z" fill="url(#paint8_linear_348_42)"/>
<path fill-rule="evenodd" clip-rule="evenodd" d="M71.6083 5.30289C72.9598 9.36121 70.7655 13.7467 66.7072 15.0983C55.7523 18.7465 45.889 22.1192 37.6273 27.8749C29.4269 33.588 23.6065 41.6142 22.7767 49.92L22.7755 49.9318L22.7743 49.9436C22.0842 56.6432 24.7497 63.5844 29.5687 69.4125C48.3295 56.0406 71.4796 50.9492 93.2766 50.8551L93.2933 50.855H93.31C97.8944 50.855 104.046 51.1995 109.803 52.944C115.51 54.6732 122.075 58.1827 125.357 65.3876C130.481 76.6274 124.594 89.5495 115.62 95.3609C107.055 100.907 96.7218 101.22 89.3009 101.412L89.2984 101.412C73.037 101.829 54.3623 101.898 37.5943 94.3885C34.7842 93.13 32.0092 91.5866 29.346 89.7918C24.7362 94.409 20.9388 99.6041 18.507 105.218C14.3108 114.914 14.5968 126.76 18.5778 136.852C24.3914 132.591 30.6127 128.911 37.1523 125.868L37.1794 125.856L37.2066 125.843C57.8609 116.425 81.3526 116.524 102.15 121.291L102.154 121.292C109.83 123.055 119.969 125.826 127.419 133.157C133.668 139.29 134.697 147.181 132.644 153.96C130.69 160.409 125.993 165.994 120.337 169.344L120.27 169.384L120.202 169.422C111.288 174.462 101.278 177.249 91.0415 177.542C89.0551 177.604 86.9925 177.687 84.8721 177.771C76.0774 178.123 66.2876 178.514 56.8087 177.691C44.8624 176.653 32.477 173.651 21.6372 165.721C1.44443 150.959 -5.28693 121.194 4.29229 99.0635L4.29307 99.0617C7.51332 91.6271 12.2961 85.0686 17.7917 79.4478C10.6287 70.9356 6.15551 60.1427 7.36457 48.3683C8.79876 34.0595 18.3161 22.4501 28.7727 15.1652C39.1135 7.96098 51.0746 3.9778 61.6366 0.460497L61.8129 0.401797C65.8712 -0.94972 70.2567 1.24457 71.6083 5.30289ZM26.9561 149.923C28.1464 151.121 29.4222 152.225 30.7804 153.217L30.7828 153.219C38.493 158.859 47.7577 161.357 58.1489 162.259C66.5503 162.989 75.0835 162.652 83.7919 162.308C86.0382 162.219 88.2962 162.13 90.5665 162.059L90.5785 162.058L90.5905 162.058C98.2805 161.84 105.802 159.754 112.504 155.98C115.108 154.416 117.096 151.858 117.819 149.47C118.447 147.397 118.132 145.745 116.567 144.209L116.557 144.2C112.508 140.214 106.33 138.145 98.6897 136.389M26.9561 149.923C32.1631 146.023 37.7609 142.672 43.6606 139.925C60.2795 132.356 80.0548 132.119 98.6857 136.388M42.35 79.5045C42.8686 79.7642 43.394 80.0134 43.9257 80.2515C57.0771 86.1416 72.3815 86.3508 88.8992 85.9276C96.8982 85.7201 102.825 85.1926 107.2 82.3592C111.166 79.7906 112.539 74.6126 111.263 71.8125L111.262 71.8105C110.604 70.3667 108.969 68.8767 105.312 67.7685C101.709 66.6771 97.3376 66.3459 93.3265 66.345C75.2459 66.4255 57.1236 70.3383 42.35 79.5045Z" fill="url(#paint9_linear_348_42)"/>
<defs>
<linearGradient id="paint0_linear_348_42" x1="22.8694" y1="153.548" x2="757.335" y2="97.8236" gradientUnits="userSpaceOnUse">
<stop stop-color="#2167FF"/>
<stop offset="1" stop-color="#0051FF"/>
</linearGradient>
<linearGradient id="paint1_linear_348_42" x1="22.8694" y1="153.548" x2="757.335" y2="97.8236" gradientUnits="userSpaceOnUse">
<stop stop-color="#2167FF"/>
<stop offset="1" stop-color="#0051FF"/>
</linearGradient>
<linearGradient id="paint2_linear_348_42" x1="22.8694" y1="153.548" x2="757.335" y2="97.8236" gradientUnits="userSpaceOnUse">
<stop stop-color="#2167FF"/>
<stop offset="1" stop-color="#0051FF"/>
</linearGradient>
<linearGradient id="paint3_linear_348_42" x1="22.8694" y1="153.548" x2="757.335" y2="97.8236" gradientUnits="userSpaceOnUse">
<stop stop-color="#2167FF"/>
<stop offset="1" stop-color="#0051FF"/>
</linearGradient>
<linearGradient id="paint4_linear_348_42" x1="22.8694" y1="153.548" x2="757.335" y2="97.8236" gradientUnits="userSpaceOnUse">
<stop stop-color="#2167FF"/>
<stop offset="1" stop-color="#0051FF"/>
</linearGradient>
<linearGradient id="paint5_linear_348_42" x1="22.8694" y1="153.548" x2="757.335" y2="97.8236" gradientUnits="userSpaceOnUse">
<stop stop-color="#2167FF"/>
<stop offset="1" stop-color="#0051FF"/>
</linearGradient>
<linearGradient id="paint6_linear_348_42" x1="22.8694" y1="153.548" x2="757.335" y2="97.8236" gradientUnits="userSpaceOnUse">
<stop stop-color="#2167FF"/>
<stop offset="1" stop-color="#0051FF"/>
</linearGradient>
<linearGradient id="paint7_linear_348_42" x1="22.8694" y1="153.548" x2="757.335" y2="97.8236" gradientUnits="userSpaceOnUse">
<stop stop-color="#2167FF"/>
<stop offset="1" stop-color="#0051FF"/>
</linearGradient>
<linearGradient id="paint8_linear_348_42" x1="22.8694" y1="153.548" x2="757.335" y2="97.8236" gradientUnits="userSpaceOnUse">
<stop stop-color="#2167FF"/>
<stop offset="1" stop-color="#0051FF"/>
</linearGradient>
<linearGradient id="paint9_linear_348_42" x1="22.8694" y1="153.548" x2="757.335" y2="97.8236" gradientUnits="userSpaceOnUse">
<stop stop-color="#2167FF"/>
<stop offset="1" stop-color="#0051FF"/>
</linearGradient>
</defs>
</svg>
