<svg width="1309" height="244" viewBox="0 0 1309 244" fill="none" xmlns="http://www.w3.org/2000/svg">
<path fill-rule="evenodd" clip-rule="evenodd" d="M250.11 17.657H261.583V94.1433H262.291C263.707 92.302 265.407 90.4606 267.532 88.6193C269.656 86.778 272.206 84.9366 275.18 83.2369C278.155 81.5372 281.696 80.2625 285.662 79.1293C289.628 78.1378 294.16 77.5713 299.259 77.5713C306.908 77.5713 314.132 78.9877 320.647 81.9622C327.163 84.9366 332.687 88.9026 337.361 94.1433C342.035 99.2424 345.576 105.333 348.125 112.273C350.675 119.214 351.95 126.721 351.95 134.794C351.95 142.868 350.675 150.375 348.267 157.315C345.859 164.256 342.318 170.346 337.644 175.445C332.97 180.545 327.304 184.652 320.647 187.627C313.99 190.601 306.483 192.018 298.126 192.018C290.477 192.018 283.254 190.459 276.597 187.485C269.939 184.511 264.699 179.553 260.733 172.896H260.308V189.185H234.387V33.5208C234.387 24.7391 241.47 17.657 250.11 17.657ZM324.755 134.936C324.755 130.687 324.046 126.579 322.63 122.613C321.214 118.647 319.089 115.248 316.256 112.132C313.423 109.157 310.024 106.749 306.2 104.908C302.234 103.067 297.843 102.217 292.744 102.217C287.786 102.217 283.254 103.067 279.288 104.908C275.322 106.749 271.922 109.157 269.231 112.132C266.398 115.106 264.274 118.647 262.857 122.613C261.441 126.579 260.733 130.687 260.733 134.936C260.733 139.185 261.441 143.293 262.857 147.259C264.274 151.225 266.398 154.624 269.231 157.74C272.064 160.715 275.463 163.123 279.288 164.964C283.254 166.805 287.645 167.655 292.744 167.655C297.701 167.655 302.234 166.805 306.2 164.964C310.166 163.123 313.565 160.715 316.256 157.74C319.089 154.766 321.214 151.225 322.63 147.259C324.046 143.151 324.755 139.044 324.755 134.936Z" fill="white"/>
<path fill-rule="evenodd" clip-rule="evenodd" d="M1098.4 17.657H1086.93C1078.29 17.657 1071.21 24.7391 1071.21 33.5208V189.185H1097.13V172.896H1097.55C1101.52 179.553 1106.76 184.511 1113.41 187.485C1120.07 190.459 1127.3 192.018 1134.94 192.018C1143.3 192.018 1150.81 190.601 1157.46 187.627C1164.12 184.652 1169.79 180.545 1174.46 175.445C1179.14 170.346 1182.68 164.256 1185.08 157.315C1187.49 150.375 1188.77 142.868 1188.77 134.794C1188.77 126.721 1187.49 119.214 1184.94 112.273C1182.39 105.333 1178.85 99.2424 1174.18 94.1433C1169.5 88.9026 1163.98 84.9366 1157.46 81.9622C1150.95 78.9877 1143.73 77.5713 1136.08 77.5713C1130.98 77.5713 1126.45 78.1378 1122.48 79.1293C1118.51 80.2625 1114.97 81.5372 1112 83.2369C1109.02 84.9366 1106.47 86.778 1104.35 88.6193C1102.22 90.4606 1100.52 92.302 1099.11 94.1433H1098.4V17.657ZM1159.45 122.613C1160.86 126.579 1161.57 130.687 1161.57 134.936C1161.57 139.044 1160.86 143.151 1159.45 147.259C1158.03 151.225 1155.91 154.766 1153.07 157.74C1150.38 160.715 1146.98 163.123 1143.02 164.964C1139.05 166.805 1134.52 167.655 1129.56 167.655C1124.46 167.655 1120.07 166.805 1116.11 164.964C1112.28 163.123 1108.88 160.715 1106.05 157.74C1103.22 154.624 1101.09 151.225 1099.67 147.259C1098.26 143.293 1097.55 139.185 1097.55 134.936C1097.55 130.687 1098.26 126.579 1099.67 122.613C1101.09 118.647 1103.22 115.106 1106.05 112.132C1108.74 109.157 1112.14 106.749 1116.11 104.908C1120.07 103.067 1124.6 102.217 1129.56 102.217C1134.66 102.217 1139.05 103.067 1143.02 104.908C1146.84 106.749 1150.24 109.157 1153.07 112.132C1155.91 115.248 1158.03 118.647 1159.45 122.613Z" fill="white"/>
<path d="M885.796 95.5599H885.371V17.7988H873.898C865.258 17.7988 858.176 24.8809 858.176 33.521V189.468H885.371V129.979C885.371 126.296 885.938 122.897 886.787 119.497C887.637 116.098 889.195 113.123 891.178 110.574C893.161 108.024 895.711 106.041 898.827 104.483C901.943 102.925 905.767 102.217 910.3 102.217C915.116 102.217 918.798 103.35 921.49 105.475C924.181 107.741 926.164 110.432 927.438 113.69C928.713 116.948 929.563 120.489 929.846 124.172C930.13 127.854 930.271 131.254 930.271 134.228V189.468H957.466V120.63C957.466 114.965 956.9 109.582 955.483 104.483C954.067 99.3843 951.801 94.8517 948.685 90.8858C945.569 87.0615 941.461 83.8037 936.362 81.3958C931.263 78.9879 925.03 77.7131 917.807 77.7131C909.308 77.7131 902.368 79.5545 896.986 83.2371C891.603 86.9198 887.92 91.0274 885.796 95.5599Z" fill="white"/>
<path d="M387.785 80.4041H398.975V97.6843H399.4C402.374 91.3105 406.765 86.353 412.289 82.9536C417.955 79.4126 424.329 77.7129 431.553 77.7129C433.252 77.7129 434.81 77.8545 436.368 78.1378C437.926 78.4211 439.626 78.846 441.184 79.271V105.616C438.918 105.05 436.652 104.483 434.527 104.2C432.261 103.775 430.136 103.633 428.011 103.633C421.638 103.633 416.539 104.766 412.714 107.174C408.89 109.582 405.915 112.273 403.791 115.248C401.808 118.222 400.391 121.338 399.683 124.313C398.975 127.287 398.692 129.554 398.692 131.112V189.468H371.497V96.4096C371.78 87.4862 379.004 80.4041 387.785 80.4041Z" fill="white"/>
<path fill-rule="evenodd" clip-rule="evenodd" d="M451.382 134.936C451.382 126.296 452.94 118.506 456.056 111.424C459.172 104.341 463.422 98.3925 468.662 93.4351C473.903 88.4776 480.277 84.5117 487.501 81.8205C494.724 79.1293 502.515 77.7129 510.588 77.7129C518.803 77.7129 526.452 79.1293 533.676 81.8205C540.899 84.5117 547.273 88.336 552.514 93.4351C557.755 98.3925 562.004 104.483 565.12 111.424C568.236 118.506 569.794 126.296 569.794 134.936C569.794 143.576 568.236 151.366 565.12 158.448C562.004 165.531 557.755 171.479 552.514 176.437C547.273 181.394 540.899 185.36 533.676 188.052C526.452 190.743 518.662 192.159 510.588 192.159C502.373 192.159 494.724 190.743 487.501 188.052C480.277 185.36 473.903 181.536 468.662 176.437C463.422 171.479 459.172 165.389 456.056 158.448C452.94 151.366 451.382 143.434 451.382 134.936ZM478.577 134.936C478.577 139.185 479.285 143.293 480.702 147.259C482.118 151.225 484.243 154.624 487.076 157.74C489.909 160.715 493.308 163.123 497.132 164.964C501.098 166.805 505.489 167.655 510.588 167.655C515.546 167.655 520.078 166.805 524.044 164.964C528.01 163.123 531.409 160.715 534.101 157.74C536.934 154.766 539.058 151.225 540.475 147.259C541.891 143.293 542.599 139.185 542.599 134.936C542.599 130.687 541.891 126.579 540.475 122.613C539.058 118.647 536.934 115.248 534.101 112.132C531.268 109.157 527.868 106.749 524.044 104.908C520.078 103.067 515.687 102.217 510.588 102.217C505.631 102.217 501.098 103.067 497.132 104.908C493.166 106.749 489.767 109.157 487.076 112.132C484.243 115.106 482.118 118.647 480.702 122.613C479.285 126.579 478.577 130.687 478.577 134.936Z" fill="white"/>
<path d="M664.694 189.327H690.614V90.8858C690.614 85.0785 685.94 80.4043 680.133 80.4043H673.901C668.093 80.4043 663.419 85.0785 663.419 90.8858V139.752C663.419 143.435 662.853 146.976 662.003 150.234C661.153 153.633 659.595 156.607 657.612 159.157C655.629 161.706 653.079 163.689 649.963 165.247C646.847 166.806 643.023 167.514 638.49 167.514C633.674 167.514 629.992 166.522 627.301 164.256C624.609 161.99 622.626 159.299 621.352 156.041C620.077 152.783 619.227 149.242 618.944 145.559C618.661 141.877 618.519 138.477 618.519 135.503V80.4043H607.046C598.406 80.4043 591.324 87.4864 591.324 96.1265V149.1C591.324 154.766 591.89 160.148 593.307 165.247C594.723 170.347 596.989 175.021 600.105 178.987C603.222 182.953 607.329 186.069 612.428 188.477C617.527 190.885 623.76 192.018 630.983 192.018C640.048 192.018 647.272 190.035 652.513 186.069C657.754 182.103 661.719 177.287 664.269 171.905H664.694V189.327Z" fill="white"/>
<path fill-rule="evenodd" clip-rule="evenodd" d="M830.414 80.6876V179.553C830.414 189.327 829.14 198.25 826.732 206.182C824.324 214.114 820.5 220.913 815.542 226.437C810.443 231.961 804.069 236.21 796.421 239.326C788.772 242.3 779.565 243.858 768.942 243.858C758.744 243.858 749.254 242.584 740.047 240.034C730.982 237.485 722.625 232.81 714.835 226.012L731.124 203.774C736.506 208.731 742.314 212.697 748.121 215.389C754.07 218.08 760.869 219.496 768.517 219.496C775.033 219.496 780.557 218.646 784.948 216.805C789.48 214.964 793.021 212.556 795.571 209.298C798.262 206.182 800.103 202.357 801.236 197.825C802.369 193.292 802.936 188.335 802.936 182.953V175.021H802.511C798.545 180.261 793.304 184.227 786.789 186.919C780.273 189.61 773.616 190.885 766.818 190.885C758.602 190.885 751.237 189.468 744.58 186.494C737.923 183.519 732.257 179.553 727.441 174.596C722.625 169.638 718.943 163.689 716.393 156.891C713.844 150.092 712.569 142.868 712.569 135.078C712.569 127.004 713.844 119.497 716.251 112.557C718.659 105.616 722.2 99.5259 726.875 94.4268C731.549 89.3277 737.214 85.2201 743.73 82.2456C750.245 79.2711 757.894 77.8547 766.251 77.8547C773.9 77.8547 781.123 79.4128 787.78 82.3873C794.438 85.3617 799.678 90.3192 803.644 96.9763H804.069V83.8037C804.069 82.104 805.486 80.6876 807.185 80.6876H830.414ZM772.2 102.217C767.384 102.217 762.993 103.067 759.027 104.625C755.061 106.183 751.662 108.449 748.971 111.14C746.138 113.973 744.013 117.373 742.455 121.339C740.897 125.305 740.047 129.837 740.047 134.653C740.047 139.044 740.897 143.151 742.455 146.976C744.013 150.8 746.279 154.058 749.112 157.032C751.945 159.865 755.345 162.131 759.31 163.831C763.276 165.531 767.526 166.381 772.058 166.381C777.016 166.381 781.548 165.531 785.514 163.831C789.48 162.131 792.88 159.865 795.712 157.174C798.545 154.341 800.67 150.942 802.228 147.117C803.786 143.151 804.494 138.902 804.494 134.37C804.494 124.88 801.661 117.089 795.854 111.282C790.047 105.192 782.256 102.217 772.2 102.217Z" fill="white"/>
<path d="M971.772 103.492V80.4041H994.293V48.8181H1021.49V80.4041H1051.52V103.492H1021.49V151.225C1021.49 156.607 1022.48 160.998 1024.6 164.114C1026.59 167.23 1030.7 168.93 1036.79 168.93C1039.19 168.93 1041.88 168.647 1044.72 168.08C1047.55 167.514 1049.82 166.664 1051.52 165.531V188.477C1048.68 189.893 1045.14 190.743 1040.89 191.309C1036.79 191.876 1033.1 192.159 1029.85 192.159C1022.62 192.159 1016.67 191.309 1012 189.751C1007.32 188.193 1003.78 185.785 1001.09 182.528C998.401 179.27 996.56 175.162 995.71 170.346C994.718 165.531 994.293 159.865 994.293 153.491V103.492H971.772Z" fill="white"/>
<path d="M1222.19 80.4043H1192.17L1238.62 190.743L1233.38 203.632C1233.24 203.95 1233.1 204.265 1232.96 204.575C1231.86 207.03 1230.86 209.237 1229.98 210.998C1228.99 212.981 1227.58 214.68 1226.02 215.955C1224.46 217.23 1222.48 218.221 1220.21 218.788C1217.95 219.354 1215.11 219.638 1211.85 219.638C1209.45 219.638 1207.18 219.354 1204.77 218.788L1198.12 217.23L1194.72 241.309C1201.51 243.15 1208.46 244 1215.54 244C1221.63 244 1226.87 243.292 1231.12 242.017C1235.37 240.742 1239.19 238.759 1242.31 236.068C1245.57 233.377 1248.26 230.119 1250.66 226.295C1253.07 222.471 1255.2 217.938 1257.18 212.839L1308.74 80.5459H1291.46C1284.8 80.5459 1278.85 84.6535 1276.58 90.8858L1253.07 156.041H1252.65L1222.19 80.4043Z" fill="white"/>
<path d="M61.6055 19.0016C50.9993 26.2653 40.1204 33.6059 31.899 43.5812C23.6776 53.5566 18.5403 66.6348 20.7781 79.2491C23.9128 97.6447 42.0656 110.327 60.5015 113.068C78.9375 115.809 97.4756 110.574 115.217 105.122C123.591 102.462 132.335 99.5512 138.153 93.0512C143.932 86.4148 145.114 75.4841 139.414 68.8517C132.396 60.6782 118.478 62.99 109.072 65.6462C86.347 72.2114 64.4031 84.1489 49.5398 102.918C41.5317 113.127 34.9959 125.423 33.2246 138.433C29.9049 161.595 44.4165 187.964 66.902 196.184C91.272 205.345 117.589 194.821 140.569 187.595C149.761 184.705 159.389 179.189 166.318 171.934C173.814 164.077 175.861 149.958 165.061 144.03C157.059 139.667 147.428 139.443 138.438 139.922C115.516 141.097 91.934 147.757 74.2416 162.762C67.5707 168.325 61.753 174.825 56.5367 181.891" stroke="#0052FF" stroke-width="18.4134" stroke-miterlimit="10" stroke-linecap="round"/>
</svg>
