<svg width="15" height="109" viewBox="0 0 15 109" fill="none" xmlns="http://www.w3.org/2000/svg">
<g filter="url(#filter0_d_460_271)">
<circle cx="7.5" cy="101.5" r="1.5" fill="black"/>
</g>
<path fill-rule="evenodd" clip-rule="evenodd" d="M7.25 0C8.49264 0 9.5 1.00736 9.5 2.25C9.5 3.40814 8.62499 4.3619 7.50001 4.48627L7.5 99.0137C8.62499 99.1381 9.5 100.092 9.5 101.25C9.5 102.493 8.49264 103.5 7.25 103.5C6.00736 103.5 5 102.493 5 101.25C5 100.092 5.87501 99.1381 7 99.0137L7.00001 4.48627C5.87502 4.36191 5 3.40814 5 2.25C5 1.00736 6.00736 0 7.25 0Z" fill="url(#paint0_linear_460_271)"/>
<defs>
<filter id="filter0_d_460_271" x="0.3" y="94.3" width="14.4" height="14.4" filterUnits="userSpaceOnUse" color-interpolation-filters="sRGB">
<feFlood flood-opacity="0" result="BackgroundImageFix"/>
<feColorMatrix in="SourceAlpha" type="matrix" values="0 0 0 0 0 0 0 0 0 0 0 0 0 0 0 0 0 0 127 0" result="hardAlpha"/>
<feMorphology radius="2" operator="dilate" in="SourceAlpha" result="effect1_dropShadow_460_271"/>
<feOffset/>
<feGaussianBlur stdDeviation="1.85"/>
<feComposite in2="hardAlpha" operator="out"/>
<feColorMatrix type="matrix" values="0 0 0 0 0 0 0 0 0 0.146521 0 0 0 0 0.523291 0 0 0 1 0"/>
<feBlend mode="normal" in2="BackgroundImageFix" result="effect1_dropShadow_460_271"/>
<feBlend mode="normal" in="SourceGraphic" in2="effect1_dropShadow_460_271" result="shape"/>
</filter>
<linearGradient id="paint0_linear_460_271" x1="7.62498" y1="-1" x2="7.62498" y2="104.125" gradientUnits="userSpaceOnUse">
<stop offset="0.525" stop-color="white" stop-opacity="0.2"/>
<stop offset="1" stop-color="#0029FF"/>
</linearGradient>
</defs>
</svg>
