<svg width="81" height="112" viewBox="0 0 81 112" fill="none" xmlns="http://www.w3.org/2000/svg">
<path fill-rule="evenodd" clip-rule="evenodd" d="M23.2499 0C24.4925 0 25.4999 1.00736 25.4999 2.25C25.4999 3.49264 24.4925 4.5 23.2499 4.5C22.8454 4.5 22.4659 4.39328 22.1379 4.20647C17.0074 7.72219 11.9587 11.2572 8.09736 15.9423C4.01076 20.9007 1.5397 27.3066 2.61843 33.3871L2.61962 33.3938C3.66081 39.504 8.18954 44.3922 13.9178 47.2794C14.4516 46.5193 15.0031 45.7784 15.5677 45.0586L15.5706 45.0549C23.3456 35.237 34.7846 29.0369 46.5468 25.6388L46.5526 25.6372C51.3271 24.2888 57.8109 22.9303 62.467 28.3482C65.7014 32.1118 65.7534 37.5039 62.4627 41.2826L62.4538 41.2929L62.4537 41.2928C59.2647 44.8559 54.5123 46.4104 50.2719 47.757L50.263 47.7598C41.2046 50.5435 31.5086 53.301 21.8179 51.8601C19.381 51.4978 16.939 50.8031 14.6215 49.8074C11.8035 54.1335 9.6781 58.9707 8.99501 63.9883L8.99404 63.9953C7.77806 72.4791 11.4354 81.8486 17.9213 87.7593C18.0144 87.6465 18.1077 87.534 18.2012 87.4219C22.6857 82.0435 27.6003 77.4374 29.3558 75.9728C38.5761 68.1543 50.3504 63.4675 62.3026 62.8547C67.0697 62.6013 71.6857 63.51 75.9592 65.8399L75.9617 65.8413C79.1005 67.5643 80.3698 70.507 80.3135 73.5074C80.2579 76.4653 78.9252 79.5121 76.8477 81.6899L76.8473 81.6903C74.9687 83.6573 72.9688 84.9656 70.323 86.2819C68.6313 87.1236 66.6342 87.9871 64.215 89.0332L64.2149 89.0333L64.2143 89.0335C62.9073 89.5987 61.4771 90.2171 59.9053 90.9141L59.8495 90.9389L59.7911 90.9567C59.3916 91.0782 58.9948 91.1993 58.6005 91.3197C47.6524 94.6609 38.5782 97.4302 25.0218 94.3871L24.9585 94.3729L24.8975 94.3506C22.4729 93.4642 20.2252 92.1852 18.1966 90.607C16.5802 92.6704 15.0966 94.7902 13.9365 96.8373C12.4015 99.5461 11.4999 102.012 11.4999 104C11.4998 104.552 11.0521 105 10.4998 105C9.94755 105 9.49985 104.552 9.49985 104C9.49988 101.488 10.6089 98.6528 12.1965 95.8513C13.428 93.6782 14.9881 91.4556 16.6637 89.3207C9.62296 82.9612 5.70252 72.8727 7.01379 63.7149C7.73408 58.4291 9.93145 53.4 12.796 48.947C6.71885 45.8188 1.80978 40.5398 0.648578 33.7331C-0.561952 26.9022 2.22557 19.9221 6.55399 14.6703C10.6175 9.73994 15.9056 6.05106 21.0195 2.54823C21.0066 2.45065 20.9999 2.35111 20.9999 2.25C20.9999 1.00736 22.0073 0 23.2499 0ZM25.5237 92.45C23.3346 91.6421 21.2974 90.4802 19.4513 89.0475C19.5463 88.9323 19.6417 88.8173 19.7372 88.7027C24.1462 83.4149 28.9783 78.8919 30.6397 77.5063L30.646 77.501C39.5358 69.9615 50.894 65.4423 62.405 64.8521L62.4069 64.852C66.8417 64.616 71.0842 65.46 75.0019 67.5959C77.3886 68.9072 78.3584 71.094 78.3138 73.4698C78.2684 75.8887 77.1593 78.4655 75.4009 80.309C73.7331 82.0554 71.9482 83.2395 69.4322 84.4912C67.7864 85.31 65.87 86.1385 63.4929 87.1662C62.1934 87.728 60.7563 88.3493 59.1503 89.0611C58.8066 89.1657 58.4653 89.2699 58.1262 89.3733L58.0939 89.3831C47.1421 92.724 38.5232 95.3532 25.5237 92.45ZM22.112 49.8818C19.9467 49.5599 17.802 48.9642 15.769 48.1258C16.2137 47.5027 16.6715 46.8919 17.1401 46.2945C24.5791 36.9021 35.6008 30.8833 47.0991 27.5611C51.9515 26.1909 57.1897 25.2761 60.9502 29.6518C63.5489 32.6757 63.5795 36.9499 60.9589 39.9641C58.1935 43.0502 53.9987 44.475 49.6708 45.8495C40.5702 48.646 31.2915 51.2467 22.112 49.8818Z" fill="url(#paint0_linear_462_270)"/>
<g filter="url(#filter0_d_462_270)">
<circle cx="10.5" cy="104.5" r="1.5" fill="#1336F0"/>
</g>
<circle cx="2.25" cy="2.25" r="2.25" transform="matrix(1 8.74228e-08 8.74228e-08 -1 8 106.5)" fill="#1336F0"/>
<defs>
<filter id="filter0_d_462_270" x="3.3" y="97.3" width="14.4" height="14.4" filterUnits="userSpaceOnUse" color-interpolation-filters="sRGB">
<feFlood flood-opacity="0" result="BackgroundImageFix"/>
<feColorMatrix in="SourceAlpha" type="matrix" values="0 0 0 0 0 0 0 0 0 0 0 0 0 0 0 0 0 0 127 0" result="hardAlpha"/>
<feMorphology radius="2" operator="dilate" in="SourceAlpha" result="effect1_dropShadow_462_270"/>
<feOffset/>
<feGaussianBlur stdDeviation="1.85"/>
<feComposite in2="hardAlpha" operator="out"/>
<feColorMatrix type="matrix" values="0 0 0 0 0 0 0 0 0 0.146521 0 0 0 0 0.523291 0 0 0 1 0"/>
<feBlend mode="normal" in2="BackgroundImageFix" result="effect1_dropShadow_462_270"/>
<feBlend mode="normal" in="SourceGraphic" in2="effect1_dropShadow_462_270" result="shape"/>
</filter>
<linearGradient id="paint0_linear_462_270" x1="8" y1="-5.5" x2="64" y2="100.5" gradientUnits="userSpaceOnUse">
<stop offset="0.270402" stop-color="white" stop-opacity="0.2"/>
<stop offset="0.670857" stop-color="#2A48E1"/>
</linearGradient>
</defs>
</svg>
