<svg viewBox="0 0 2000 1000" xmlns="http://www.w3.org/2000/svg"><mask id="b" x="0" y="0" width="2000" height="1000"><path fill="url(#a)" d="M0 0h2000v1000H0z"/></mask>

<g style="transform-origin:center center" stroke="#6e6c6c" stroke-width=".3" fill="none" mask="url(#b)">

<path d="M160 0h80v80h-80zM240 0h80v80h-80zM320 0h80v80h-80zM480 0h80v80h-80zM560 0h80v80h-80zM640 0h80v80h-80zM720 0h80v80h-80zM800 0h80v80h-80zM880 0h80v80h-80zM1040 0h80v80h-80zM1200 0h80v80h-80zM1280 0h80v80h-80zM1360 0h80v80h-80zM1440 0h80v80h-80zM1520 0h80v80h-80zM1600 0h80v80h-80zM1680 0h80v80h-80zM1760 0h80v80h-80zM1840 0h80v80h-80zM1920 0h80v80h-80zM0 80h80v80H0zM80 80h80v80H80zM160 80h80v80h-80zM320 80h80v80h-80zM480 80h80v80h-80zM560 80h80v80h-80zM640 80h80v80h-80zM720 80h80v80h-80zM800 80h80v80h-80zM960 80h80v80h-80zM1040 80h80v80h-80zM1120 80h80v80h-80zM1280 80h80v80h-80zM1360 80h80v80h-80zM1520 80h80v80h-80zM1600 80h80v80h-80zM1680 80h80v80h-80zM1760 80h80v80h-80zM1920 80h80v80h-80zM0 160h80v80H0zM80 160h80v80H80zM160 160h80v80h-80zM240 160h80v80h-80zM320 160h80v80h-80zM400 160h80v80h-80zM480 160h80v80h-80zM640 160h80v80h-80zM720 160h80v80h-80zM800 160h80v80h-80zM960 160h80v80h-80zM1040 160h80v80h-80zM1120 160h80v80h-80zM1200 160h80v80h-80zM1280 160h80v80h-80zM1360 160h80v80h-80zM1440 160h80v80h-80zM1520 160h80v80h-80zM1600 160h80v80h-80zM1680 160h80v80h-80zM1840 160h80v80h-80zM1920 160h80v80h-80zM0 240h80v80H0zM160 240h80v80h-80zM320 240h80v80h-80zM400 240h80v80h-80zM480 240h80v80h-80zM560 240h80v80h-80zM640 240h80v80h-80zM720 240h80v80h-80zM800 240h80v80h-80zM880 240h80v80h-80zM960 240h80v80h-80zM1040 240h80v80h-80zM1120 240h80v80h-80zM1200 240h80v80h-80zM1280 240h80v80h-80zM1360 240h80v80h-80zM1440 240h80v80h-80zM1520 240h80v80h-80zM1600 240h80v80h-80zM1680 240h80v80h-80zM1760 240h80v80h-80zM1840 240h80v80h-80zM1920 240h80v80h-80zM0 320h80v80H0zM80 320h80v80H80zM160 320h80v80h-80zM240 320h80v80h-80zM320 320h80v80h-80zM400 320h80v80h-80zM480 320h80v80h-80zM560 320h80v80h-80zM640 320h80v80h-80zM720 320h80v80h-80zM800 320h80v80h-80zM880 320h80v80h-80zM960 320h80v80h-80zM1040 320h80v80h-80zM1120 320h80v80h-80zM1200 320h80v80h-80zM1360 320h80v80h-80zM1440 320h80v80h-80zM1520 320h80v80h-80zM1600 320h80v80h-80zM1680 320h80v80h-80zM1760 320h80v80h-80zM1840 320h80v80h-80zM1920 320h80v80h-80zM0 400h80v80H0zM80 400h80v80H80zM160 400h80v80h-80zM240 400h80v80h-80zM320 400h80v80h-80zM400 400h80v80h-80zM480 400h80v80h-80zM720 400h80v80h-80zM800 400h80v80h-80zM960 400h80v80h-80zM1040 400h80v80h-80zM1120 400h80v80h-80zM1360 400h80v80h-80zM1440 400h80v80h-80zM1520 400h80v80h-80zM1600 400h80v80h-80zM1680 400h80v80h-80zM1760 400h80v80h-80zM1840 400h80v80h-80zM1920 400h80v80h-80zM0 480h80v80H0zM80 480h80v80H80zM160 480h80v80h-80zM240 480h80v80h-80zM320 480h80v80h-80zM480 480h80v80h-80zM560 480h80v80h-80zM640 480h80v80h-80zM720 480h80v80h-80zM800 480h80v80h-80zM960 480h80v80h-80zM1120 480h80v80h-80zM1200 480h80v80h-80zM1280 480h80v80h-80zM1360 480h80v80h-80zM1520 480h80v80h-80zM1600 480h80v80h-80zM1760 480h80v80h-80zM1840 480h80v80h-80zM1920 480h80v80h-80zM80 560h80v80H80zM160 560h80v80h-80zM240 560h80v80h-80zM320 560h80v80h-80zM400 560h80v80h-80zM480 560h80v80h-80zM560 560h80v80h-80zM640 560h80v80h-80zM720 560h80v80h-80zM800 560h80v80h-80zM880 560h80v80h-80zM960 560h80v80h-80zM1040 560h80v80h-80zM1120 560h80v80h-80zM1200 560h80v80h-80zM1280 560h80v80h-80zM1360 560h80v80h-80zM1440 560h80v80h-80zM1600 560h80v80h-80zM1680 560h80v80h-80zM1760 560h80v80h-80zM1840 560h80v80h-80zM1920 560h80v80h-80zM0 640h80v80H0zM160 640h80v80h-80zM320 640h80v80h-80zM400 640h80v80h-80zM480 640h80v80h-80zM640 640h80v80h-80zM880 640h80v80h-80zM960 640h80v80h-80zM1040 640h80v80h-80zM1120 640h80v80h-80zM1200 640h80v80h-80zM1280 640h80v80h-80zM1360 640h80v80h-80zM1440 640h80v80h-80zM1600 640h80v80h-80zM1680 640h80v80h-80zM1760 640h80v80h-80zM1840 640h80v80h-80zM0 720h80v80H0zM80 720h80v80H80zM160 720h80v80h-80zM240 720h80v80h-80zM320 720h80v80h-80zM400 720h80v80h-80zM480 720h80v80h-80zM560 720h80v80h-80zM640 720h80v80h-80zM800 720h80v80h-80zM880 720h80v80h-80zM960 720h80v80h-80zM1040 720h80v80h-80zM1120 720h80v80h-80zM1200 720h80v80h-80zM1280 720h80v80h-80zM1360 720h80v80h-80zM1440 720h80v80h-80zM1520 720h80v80h-80zM1600 720h80v80h-80zM1680 720h80v80h-80zM1760 720h80v80h-80zM1840 720h80v80h-80zM80 800h80v80H80zM160 800h80v80h-80zM240 800h80v80h-80zM320 800h80v80h-80zM400 800h80v80h-80zM560 800h80v80h-80zM640 800h80v80h-80zM880 800h80v80h-80zM960 800h80v80h-80zM1040 800h80v80h-80zM1280 800h80v80h-80zM1360 800h80v80h-80zM1440 800h80v80h-80zM1520 800h80v80h-80zM1680 800h80v80h-80zM1760 800h80v80h-80zM1840 800h80v80h-80zM0 880h80v80H0zM80 880h80v80H80zM160 880h80v80h-80zM240 880h80v80h-80zM320 880h80v80h-80zM400 880h80v80h-80zM480 880h80v80h-80zM880 880h80v80h-80zM960 880h80v80h-80zM1040 880h80v80h-80zM1200 880h80v80h-80zM1280 880h80v80h-80zM1360 880h80v80h-80zM1440 880h80v80h-80zM1520 880h80v80h-80zM1600 880h80v80h-80zM1680 880h80v80h-80zM1760 880h80v80h-80zM1840 880h80v80h-80zM1920 880h80v80h-80zM0 960h80v80H0zM80 960h80v80H80zM160 960h80v80h-80zM240 960h80v80h-80zM320 960h80v80h-80zM400 960h80v80h-80zM480 960h80v80h-80zM640 960h80v80h-80zM960 960h80v80h-80zM1040 960h80v80h-80zM1120 960h80v80h-80zM1200 960h80v80h-80zM1280 960h80v80h-80zM1360 960h80v80h-80zM1520 960h80v80h-80zM1600 960h80v80h-80zM1680 960h80v80h-80zM1840 960h80v80h-80zM1920 960h80v80h-80z"/></g><defs>

<linearGradient id="a"><stop offset="0" stop-color="#fff" stop-opacity="0.5"/><stop offset="0.3" stop-color="#fff" stop-opacity="0.05"/><stop offset="0.7" stop-color="#fff" stop-opacity="0.05"/><stop offset="1" stop-color="#fff" stop-opacity="0.5"/></linearGradient>

</defs></svg>