<svg width="33" height="33" viewBox="0 0 33 33" fill="none" xmlns="http://www.w3.org/2000/svg">
<rect width="33" height="33" rx="8" fill="#0052FF"/>
<path d="M12.7638 5.18079C11.4614 6.07279 10.1254 6.97424 9.11578 8.19924C8.10617 9.42424 7.47529 11.0303 7.75011 12.5794C8.13506 14.8384 10.3643 16.3958 12.6283 16.7324C14.8922 17.0691 17.1688 16.4261 19.3474 15.7566C20.3758 15.43 21.4497 15.0725 22.1641 14.2743C22.8738 13.4593 23.0189 12.117 22.3189 11.3025C21.4571 10.2988 19.7479 10.5827 18.5929 10.9089C15.8022 11.7151 13.1074 13.1811 11.2821 15.4859C10.2987 16.7397 9.49609 18.2496 9.27857 19.8474C8.87089 22.6917 10.653 25.9298 13.4143 26.9394C16.407 28.0643 19.6388 26.772 22.4608 25.8846C23.5896 25.5297 24.772 24.8523 25.6229 23.9613C26.5433 22.9965 26.7947 21.2627 25.4685 20.5347C24.4857 19.9989 23.3031 19.9714 22.1991 20.0301C19.3841 20.1745 16.4883 20.9923 14.3156 22.835C13.4964 23.5182 12.7819 24.3164 12.1414 25.1842" stroke="white" stroke-width="2.26122" stroke-miterlimit="10" stroke-linecap="round"/>
</svg>
